<svg width="20" height="20" viewBox="0 0 20 20" fill="none" xmlns="http://www.w3.org/2000/svg">
<rect width="20" height="20" fill="black"/>
<path d="M3.51737 13.8281C3.30787 13.8281 3.20312 13.7234 3.20312 13.514V6.50183C3.20312 6.2924 3.30787 6.18768 3.51737 6.18768C3.66758 6.18768 3.78617 6.25683 3.87313 6.39514L6.82589 10.9059L6.68358 10.9237L9.63634 6.39514C9.71935 6.25683 9.84386 6.18768 10.0099 6.18768C10.1957 6.18768 10.2886 6.2924 10.2886 6.50183V13.514C10.2886 13.7234 10.1858 13.8281 9.98024 13.8281C9.77074 13.8281 9.66599 13.7234 9.66599 13.514V7.12421L9.84979 7.18349L7.11049 11.3564C7.02353 11.4907 6.89901 11.5579 6.73695 11.5579C6.59465 11.5579 6.48001 11.4907 6.39305 11.3564L3.65375 7.18349L3.82569 7.24869V13.514C3.82569 13.7234 3.72292 13.8281 3.51737 13.8281Z" fill="white"/>
<path d="M16.4826 6.17188C16.6921 6.17187 16.7969 6.27659 16.7969 6.48603L16.7969 13.4982C16.7969 13.7076 16.6921 13.8123 16.4826 13.8123C16.3324 13.8123 16.2138 13.7432 16.1269 13.6049L13.1741 9.09409L13.3164 9.07631L10.3637 13.6049C10.2806 13.7432 10.1561 13.8123 9.99012 13.8123C9.80434 13.8123 9.71144 13.7076 9.71144 13.4982L9.71144 6.48603C9.71144 6.27659 9.81422 6.17188 10.0198 6.17188C10.2293 6.17188 10.334 6.27659 10.334 6.48603L10.334 12.8758L10.1502 12.8165L12.8895 8.64361C12.9765 8.50925 13.101 8.44208 13.2631 8.44208C13.4054 8.44208 13.52 8.50925 13.6069 8.64361L16.3463 12.8165L16.1743 12.7513L16.1743 6.48603C16.1743 6.27659 16.2771 6.17188 16.4826 6.17188Z" fill="white"/>
</svg>
